<svg width="116" height="80" viewBox="0 0 116 80" fill="none" xmlns="http://www.w3.org/2000/svg">
<path d="M22.428 26H31.284V27.332L27.756 28.232V53H25.236L8.388 28.304V50.876L11.916 51.668V53H3.24V51.668L6.588 50.876V28.268L3.24 27.332V26H11.268L25.956 47.312V28.268L22.428 27.332V26ZM37.7634 26H48.7074V27.332L45.1074 28.16V50.876L48.7074 51.668V53H37.7634V51.668L41.3274 50.84V28.196L37.7634 27.332V26ZM69.6009 26H78.7449V27.332L75.5409 28.124L65.7489 37.34L76.9449 50.876L81.1929 51.668V53H73.6329L62.5449 39.392V50.876L66.1449 51.668V53H55.2009V51.668L58.7649 50.84V28.196L55.2009 27.332V26H66.1449V27.332L62.5449 28.16V38.672L72.4089 28.016L69.6009 27.332V26ZM84.8039 53V51.668L88.0079 50.876L98.9159 25.712H100.752L111.12 50.876L114.144 51.668V53H103.92V51.668L107.052 50.912L104.208 43.928H93.3359L90.6359 50.912L93.8759 51.668V53H84.8039ZM93.8399 42.56H103.704L98.6639 29.924L93.8399 42.56Z" fill="#FF7E00"/>
</svg>
